RC-Light.ufo
<glyph name="dollar" format="1">
  <advance width="660"/>
  <unicode hex="0024"/>
  <outline>
    <contour>
      <point x="314" y="790" type="line"/>
      <point x="314" y="-100" type="line"/>
      <point x="370" y="-100" type="line"/>
      <point x="370" y="790" type="line"/>
    </contour>
    <contour>
      <point x="570" y="177" type="curve"/>
      <point x="570" y="266"/>
      <point x="505" y="336"/>
      <point x="344" y="387" type="curve" smooth="yes"/>
      <point x="216" y="428"/>
      <point x="180" y="466"/>
      <point x="180" y="522" type="curve"/>
      <point x="180" y="588"/>
      <point x="242" y="644"/>
      <point x="344" y="644" type="curve"/>
      <point x="417" y="644"/>
      <point x="468" y="616"/>
      <point x="508" y="576" type="curve"/>
      <point x="546" y="622" type="line"/>
      <point x="495" y="670"/>
      <point x="431" y="698"/>
      <point x="344" y="698" type="curve"/>
      <point x="209" y="698"/>
      <point x="121" y="615"/>
      <point x="121" y="519" type="curve"/>
      <point x="121" y="437"/>
      <point x="174" y="378"/>
      <point x="320" y="331" type="curve" smooth="yes"/>
      <point x="472" y="282"/>
      <point x="509" y="233"/>
      <point x="509" y="172" type="curve"/>
      <point x="509" y="101"/>
      <point x="446" y="46"/>
      <point x="330" y="46" type="curve"/>
      <point x="241" y="46"/>
      <point x="176" y="78"/>
      <point x="125" y="131" type="curve"/>
      <point x="85" y="88" type="line"/>
      <point x="146" y="26"/>
      <point x="227" y="-8"/>
      <point x="330" y="-8" type="curve"/>
      <point x="477" y="-8"/>
      <point x="570" y="68"/>
    </contour>
  </outline>
</glyph>
<glyph name="hyphen" format="1">
  <advance width="382"/>
  <unicode hex="002D"/>
  <outline>
    <contour>
      <point x="75" y="251" type="line"/>
      <point x="307" y="251" type="line"/>
      <point x="307" y="301" type="line"/>
      <point x="75" y="301" type="line"/>
    </contour>
  </outline>
</glyph>
<glyph name="slash" format="1">
  <advance width="308"/>
  <unicode hex="002F"/>
  <outline>
    <contour>
      <point x="250" y="720" type="line"/>
      <point x="0" y="-30" type="line"/>
      <point x="58" y="-30" type="line"/>
      <point x="308" y="720" type="line"/>
    </contour>
  </outline>
</glyph>
<glyph name="zero" format="1">
  <advance width="660"/>
  <unicode hex="0030"/>
  <outline>
    <contour>
      <point x="77" y="345" type="curve" smooth="yes"/>
      <point x="77" y="104"/>
      <point x="195" y="-8"/>
      <point x="330" y="-8" type="curve" smooth="yes"/>
      <point x="465" y="-8"/>
      <point x="583" y="104"/>
      <point x="583" y="345" type="curve" smooth="yes"/>
      <point x="583" y="586"/>
      <point x="465" y="698"/>
      <point x="330" y="698" type="curve" smooth="yes"/>
      <point x="195" y="698"/>
      <point x="77" y="586"/>
    </contour>
    <contour>
      <point x="141" y="345" type="curve" smooth="yes"/>
      <point x="141.0" y="553.0"/>
      <point x="222.14673913043478" y="641.0"/>
      <point x="330" y="641" type="curve" smooth="yes"/>
      <point x="437.85326086956525" y="641.0"/>
      <point x="519.0" y="553.0"/>
      <point x="519" y="345" type="curve" smooth="yes"/>
      <point x="519.0" y="137.0"/>
      <point x="437.85326086956525" y="49.0"/>
      <point x="330" y="49" type="curve" smooth="yes"/>
      <point x="222.14673913043478" y="49.0"/>
      <point x="141.0" y="137.0"/>
    </contour>
  </outline>
</glyph>
<glyph name="three" format="1">
  <advance width="660"/>
  <unicode hex="0033"/>
  <outline>
    <contour>
      <point x="295" y="343" type="line" smooth="yes"/>
      <point x="403" y="343"/>
      <point x="484" y="292"/>
      <point x="484" y="202" type="curve"/>
      <point x="484" y="106"/>
      <point x="409" y="48"/>
      <point x="307" y="48" type="curve"/>
      <point x="235" y="48"/>
      <point x="176" y="78"/>
      <point x="132" y="127" type="curve"/>
      <point x="88" y="84" type="line"/>
      <point x="147" y="23"/>
      <point x="218" y="-8"/>
      <point x="307" y="-8" type="curve"/>
      <point x="438" y="-8"/>
      <point x="548" y="69"/>
      <point x="548" y="202" type="curve"/>
      <point x="548" y="331"/>
      <point x="435" y="396"/>
      <point x="318" y="396" type="curve" smooth="yes"/>
      <point x="269" y="396" type="line"/>
      <point x="216" y="384" type="line"/>
      <point x="216" y="343" type="line"/>
    </contour>
    <contour>
      <point x="105" y="634" type="line"/>
      <point x="475" y="634" type="line"/>
      <point x="524" y="648" type="line"/>
      <point x="524" y="690" type="line"/>
      <point x="105" y="690" type="line"/>
    </contour>
    <contour>
      <point x="485" y="690" type="line"/>
      <point x="216" y="384" type="line"/>
      <point x="291" y="384" type="line"/>
      <point x="524" y="648" type="line"/>
    </contour>
  </outline>
</glyph>
<glyph name="five" format="1">
  <advance width="660"/>
  <unicode hex="0035"/>
  <outline>
    <contour>
      <point x="516" y="690" type="line"/>
      <point x="169" y="690" type="line"/>
      <point x="199" y="634" type="line"/>
      <point x="516" y="634" type="line"/>
    </contour>
    <contour>
      <point x="168" y="317" type="line"/>
      <point x="191" y="339" type="line"/>
      <point x="215" y="690" type="line"/>
      <point x="161" y="690" type="line"/>
      <point x="138" y="338" type="line"/>
    </contour>
    <contour>
      <point x="320" y="364" type="curve"/>
      <point x="423" y="364"/>
      <point x="496" y="302"/>
      <point x="496" y="204" type="curve"/>
      <point x="496" y="104"/>
      <point x="421" y="48"/>
      <point x="319" y="48" type="curve" smooth="yes"/>
      <point x="247" y="48"/>
      <point x="188" y="78"/>
      <point x="144" y="127" type="curve"/>
      <point x="100" y="84" type="line"/>
      <point x="159" y="23"/>
      <point x="230" y="-8"/>
      <point x="319" y="-8" type="curve" smooth="yes"/>
      <point x="450" y="-8"/>
      <point x="560" y="67"/>
      <point x="560" y="204" type="curve"/>
      <point x="560" y="338"/>
      <point x="452" y="420"/>
      <point x="336" y="420" type="curve"/>
      <point x="280" y="420"/>
      <point x="226" y="405"/>
      <point x="176" y="373" type="curve"/>
      <point x="168" y="317" type="line"/>
      <point x="213" y="349"/>
      <point x="264" y="364"/>
    </contour>
  </outline>
</glyph>
<glyph name="six" format="1">
  <advance width="660"/>
  <unicode hex="0036"/>
  <outline>
    <contour>
      <point x="334" y="-8" type="curve"/>
      <point x="463" y="-8"/>
      <point x="560" y="93"/>
      <point x="560" y="225" type="curve"/>
      <point x="560" y="352"/>
      <point x="463" y="434"/>
      <point x="348" y="434" type="curve"/>
      <point x="263" y="434"/>
      <point x="188" y="379"/>
      <point x="154" y="317" type="curve"/>
      <point x="154" y="252" type="line"/>
      <point x="206" y="332"/>
      <point x="263" y="379"/>
      <point x="344" y="379" type="curve"/>
      <point x="427" y="379"/>
      <point x="495" y="315"/>
      <point x="495" y="222" type="curve"/>
      <point x="495" y="122"/>
      <point x="432" y="48"/>
      <point x="339" y="48" type="curve"/>
      <point x="241" y="48"/>
      <point x="157" y="136"/>
      <point x="157" y="322" type="curve" smooth="yes"/>
      <point x="157" y="539"/>
      <point x="274" y="642"/>
      <point x="381" y="642" type="curve"/>
      <point x="426" y="642"/>
      <point x="461" y="630"/>
      <point x="501" y="604" type="curve"/>
      <point x="530" y="653" type="line"/>
      <point x="479" y="684"/>
      <point x="428" y="698"/>
      <point x="381" y="698" type="curve"/>
      <point x="238" y="698"/>
      <point x="94" y="566"/>
      <point x="94" y="322" type="curve" smooth="yes"/>
      <point x="94" y="102"/>
      <point x="208" y="-8"/>
    </contour>
  </outline>
</glyph>
<glyph name="seven" format="1">
  <advance width="660"/>
  <unicode hex="0037"/>
  <outline>
    <contour>
      <point x="100" y="628" type="line"/>
      <point x="485" y="628" type="line"/>
      <point x="534" y="648" type="line"/>
      <point x="534" y="690" type="line"/>
      <point x="100" y="690" type="line"/>
    </contour>
    <contour>
      <point x="490" y="690" type="line"/>
      <point x="220" y="0" type="line"/>
      <point x="288" y="0" type="line"/>
      <point x="534" y="648" type="line"/>
    </contour>
  </outline>
</glyph>
<glyph name="nine" format="1">
  <advance width="660"/>
  <unicode hex="0039"/>
  <outline>
    <contour>
      <point x="100" y="465" type="curve"/>
      <point x="100" y="338"/>
      <point x="197" y="256"/>
      <point x="312" y="256" type="curve"/>
      <point x="397" y="256"/>
      <point x="472" y="311"/>
      <point x="506" y="373" type="curve"/>
      <point x="506" y="438" type="line"/>
      <point x="454" y="358"/>
      <point x="397" y="311"/>
      <point x="316" y="311" type="curve"/>
      <point x="233" y="311"/>
      <point x="165" y="375"/>
      <point x="165" y="468" type="curve"/>
      <point x="165" y="568"/>
      <point x="228" y="642"/>
      <point x="321" y="642" type="curve"/>
      <point x="419" y="642"/>
      <point x="503" y="554"/>
      <point x="503" y="368" type="curve" smooth="yes"/>
      <point x="503" y="151"/>
      <point x="386" y="48"/>
      <point x="279" y="48" type="curve"/>
      <point x="234" y="48"/>
      <point x="199" y="60"/>
      <point x="159" y="86" type="curve"/>
      <point x="130" y="37" type="line"/>
      <point x="181" y="6"/>
      <point x="232" y="-8"/>
      <point x="279" y="-8" type="curve"/>
      <point x="422" y="-8"/>
      <point x="566" y="124"/>
      <point x="566" y="368" type="curve" smooth="yes"/>
      <point x="566" y="588"/>
      <point x="452" y="698"/>
      <point x="326" y="698" type="curve"/>
      <point x="197" y="698"/>
      <point x="100" y="597"/>
    </contour>
  </outline>
</glyph>
<glyph name="less" format="1">
  <advance width="660"/>
  <unicode hex="003C"/>
  <outline>
    <contour>
      <point x="510" y="518" type="line"/>
      <point x="110" y="316" type="line"/>
      <point x="110" y="270" type="line"/>
      <point x="146" y="274" type="line"/>
      <point x="510" y="455" type="line"/>
    </contour>
    <contour>
      <point x="510" y="62" type="line"/>
      <point x="510" y="123" type="line"/>
      <point x="146" y="303" type="line"/>
      <point x="110" y="302" type="line"/>
      <point x="110" y="264" type="line"/>
    </contour>
  </outline>
</glyph>
<glyph name="equal" format="1">
  <advance width="660"/>
  <unicode hex="003D"/>
  <outline>
    <contour>
      <point x="551" y="427" type="line"/>
      <point x="109" y="427" type="line"/>
      <point x="109" y="373" type="line"/>
      <point x="551" y="373" type="line"/>
    </contour>
    <contour>
      <point x="551" y="207" type="line"/>
      <point x="109" y="207" type="line"/>
      <point x="109" y="153" type="line"/>
      <point x="551" y="153" type="line"/>
    </contour>
  </outline>
</glyph>
<glyph name="at" format="1">
  <advance width="967"/>
  <unicode hex="0040"/>
  <outline>
    <contour>
      <point x="274" y="252" type="curve" smooth="yes"/>
      <point x="274" y="91"/>
      <point x="354" y="14"/>
      <point x="452" y="14" type="curve" smooth="yes"/>
      <point x="513" y="14"/>
      <point x="578" y="57"/>
      <point x="615" y="115" type="curve"/>
      <point x="615" y="163" type="line"/>
      <point x="575" y="104"/>
      <point x="517" y="69"/>
      <point x="460" y="69" type="curve" smooth="yes"/>
      <point x="394" y="69"/>
      <point x="335" y="122"/>
      <point x="335" y="257" type="curve" smooth="yes"/>
      <point x="335" y="395"/>
      <point x="393" y="448"/>
      <point x="472" y="448" type="curve" smooth="yes"/>
      <point x="544" y="448"/>
      <point x="600" y="395"/>
      <point x="600" y="292" type="curve"/>
      <point x="628" y="302" type="line"/>
      <point x="628" y="430"/>
      <point x="557" y="500"/>
      <point x="468" y="500" type="curve" smooth="yes"/>
      <point x="362" y="500"/>
      <point x="274" y="425"/>
    </contour>
    <contour>
      <point x="660" y="137" type="curve"/>
      <point x="660" y="370" type="line" smooth="yes"/>
      <point x="660" y="403"/>
      <point x="661" y="424"/>
      <point x="665" y="453" type="curve" smooth="yes"/>
      <point x="671" y="492" type="line"/>
      <point x="616" y="492" type="line"/>
      <point x="600" y="389" type="line"/>
      <point x="600" y="372" type="line"/>
      <point x="600" y="133" type="line"/>
      <point x="602" y="125" type="line"/>
      <point x="617" y="34"/>
      <point x="663" y="-8"/>
      <point x="731" y="-8" type="curve"/>
      <point x="799" y="-8"/>
      <point x="887" y="51"/>
      <point x="887" y="266" type="curve" smooth="yes"/>
      <point x="887" y="551"/>
      <point x="703" y="698"/>
      <point x="494" y="698" type="curve" smooth="yes"/>
      <point x="248" y="698"/>
      <point x="80" y="527"/>
      <point x="80" y="250" type="curve" smooth="yes"/>
      <point x="80" y="-6"/>
      <point x="245" y="-193"/>
      <point x="489" y="-193" type="curve" smooth="yes"/>
      <point x="583" y="-193"/>
      <point x="670" y="-164"/>
      <point x="730" y="-136" type="curve"/>
      <point x="707" y="-85" type="line"/>
      <point x="651" y="-118"/>
      <point x="572" y="-141"/>
      <point x="489" y="-141" type="curve" smooth="yes"/>
      <point x="278" y="-141"/>
      <point x="136" y="24"/>
      <point x="136" y="250" type="curve" smooth="yes"/>
      <point x="136" y="489"/>
      <point x="278" y="646"/>
      <point x="494" y="646" type="curve" smooth="yes"/>
      <point x="676" y="646"/>
      <point x="831" y="520"/>
      <point x="831" y="266" type="curve" smooth="yes"/>
      <point x="831" y="87"/>
      <point x="774" y="44"/>
      <point x="731" y="44" type="curve"/>
      <point x="689" y="44"/>
      <point x="660" y="79"/>
    </contour>
  </outline>
</glyph>
<glyph name="C" format="1">
  <advance width="626"/>
  <unicode hex="0043"/>
  <outline>
    <contour>
      <point x="70" y="345" type="curve"/>
      <point x="70" y="112"/>
      <point x="201" y="-8"/>
      <point x="361" y="-8" type="curve"/>
      <point x="440" y="-8"/>
      <point x="517" y="25"/>
      <point x="571" y="91" type="curve"/>
      <point x="523" y="128" type="line"/>
      <point x="483" y="77"/>
      <point x="422" y="49"/>
      <point x="361" y="49" type="curve"/>
      <point x="234" y="49"/>
      <point x="134" y="148"/>
      <point x="134" y="345" type="curve"/>
      <point x="134" y="542"/>
      <point x="236" y="641"/>
      <point x="361" y="641" type="curve" smooth="yes"/>
      <point x="424" y="641"/>
      <point x="478" y="616"/>
      <point x="518" y="565" type="curve"/>
      <point x="566" y="602" type="line"/>
      <point x="512" y="668"/>
      <point x="442" y="698"/>
      <point x="361" y="698" type="curve" smooth="yes"/>
      <point x="203" y="698"/>
      <point x="70" y="578"/>
    </contour>
  </outline>
</glyph>
<glyph name="D" format="1">
  <advance width="686"/>
  <unicode hex="0044"/>
  <outline>
    <contour>
      <point x="110" y="0" type="line"/>
      <point x="172" y="0" type="line"/>
      <point x="172" y="690" type="line"/>
      <point x="110" y="690" type="line"/>
    </contour>
    <contour>
      <point x="140" y="0" type="line"/>
      <point x="304" y="0" type="line" smooth="yes"/>
      <point x="482" y="0"/>
      <point x="616.0" y="112.0"/>
      <point x="616" y="345" type="curve" smooth="yes"/>
      <point x="616.0" y="578.0"/>
      <point x="482" y="690"/>
      <point x="304" y="690" type="curve" smooth="yes"/>
      <point x="140" y="690" type="line"/>
      <point x="140" y="636" type="line"/>
      <point x="299" y="636" type="line" smooth="yes"/>
      <point x="447" y="636"/>
      <point x="552.0" y="542.0"/>
      <point x="552" y="345" type="curve" smooth="yes"/>
      <point x="552.0" y="148.0"/>
      <point x="447" y="54"/>
      <point x="299" y="54" type="curve" smooth="yes"/>
      <point x="140" y="54" type="line"/>
    </contour>
  </outline>
</glyph>
<glyph name="E" format="1">
  <advance width="596"/>
  <unicode hex="0045"/>
  <outline>
    <contour>
      <point x="110" y="0" type="line"/>
      <point x="172" y="0" type="line"/>
      <point x="172" y="690" type="line"/>
      <point x="110" y="690" type="line"/>
    </contour>
    <contour>
      <point x="140" y="0" type="line"/>
      <point x="526" y="0" type="line"/>
      <point x="526" y="54" type="line"/>
      <point x="140" y="54" type="line"/>
    </contour>
    <contour>
      <point x="140" y="322" type="line"/>
      <point x="475" y="322" type="line"/>
      <point x="475" y="374" type="line"/>
      <point x="140" y="374" type="line"/>
    </contour>
    <contour>
      <point x="140" y="636" type="line"/>
      <point x="521" y="636" type="line"/>
      <point x="521" y="690" type="line"/>
      <point x="140" y="690" type="line"/>
    </contour>
    <contour>
      <point x="311" y="690" type="move" name="top"/>
    </contour>
  </outline>
</glyph>
<glyph name="G" format="1">
  <advance width="677"/>
  <unicode hex="0047"/>
  <outline>
    <contour>
      <point x="530" y="330" type="line"/>
      <point x="530" y="87" type="line"/>
      <point x="592" y="87" type="line"/>
      <point x="592" y="330" type="line"/>
    </contour>
    <contour>
      <point x="562" y="330" type="line"/>
      <point x="379" y="330" type="line"/>
      <point x="379" y="276" type="line"/>
      <point x="562" y="276" type="line"/>
    </contour>
    <contour>
      <point x="70" y="345" type="curve" smooth="yes"/>
      <point x="70" y="112"/>
      <point x="206" y="-8"/>
      <point x="375" y="-8" type="curve"/>
      <point x="454" y="-8"/>
      <point x="536" y="25"/>
      <point x="592" y="87" type="curve"/>
      <point x="544" y="117" type="line"/>
      <point x="502" y="69"/>
      <point x="436" y="47"/>
      <point x="375" y="47" type="curve"/>
      <point x="239" y="47"/>
      <point x="134" y="148"/>
      <point x="134" y="345" type="curve" smooth="yes"/>
      <point x="134" y="542"/>
      <point x="241" y="641"/>
      <point x="371" y="641" type="curve" smooth="yes"/>
      <point x="434" y="641"/>
      <point x="489" y="618"/>
      <point x="531" y="570" type="curve"/>
      <point x="575" y="610" type="line"/>
      <point x="519" y="671"/>
      <point x="452" y="698"/>
      <point x="371" y="698" type="curve" smooth="yes"/>
      <point x="208" y="698"/>
      <point x="70" y="578"/>
    </contour>
  </outline>
</glyph>
<glyph name="H" format="1">
  <advance width="716"/>
  <unicode hex="0048"/>
  <outline>
    <contour>
      <point x="110" y="690" type="line"/>
      <point x="110" y="0" type="line"/>
      <point x="172" y="0" type="line"/>
      <point x="172" y="690" type="line"/>
    </contour>
    <contour>
      <point x="544" y="690" type="line"/>
      <point x="544" y="0" type="line"/>
      <point x="606" y="0" type="line"/>
      <point x="606" y="690" type="line"/>
    </contour>
    <contour>
      <point x="576" y="375" type="line"/>
      <point x="140" y="375" type="line"/>
      <point x="140" y="321" type="line"/>
      <point x="576" y="321" type="line"/>
    </contour>
  </outline>
</glyph>
<glyph name="I" format="1">
  <advance width="432"/>
  <unicode hex="0049"/>
  <outline>
    <contour>
      <point x="185" y="690" type="line"/>
      <point x="185" y="0" type="line"/>
      <point x="247" y="0" type="line"/>
      <point x="247" y="690" type="line"/>
    </contour>
    <contour>
      <point x="352" y="690" type="line"/>
      <point x="80" y="690" type="line"/>
      <point x="80" y="640" type="line"/>
      <point x="352" y="640" type="line"/>
    </contour>
    <contour>
      <point x="352" y="50" type="line"/>
      <point x="80" y="50" type="line"/>
      <point x="80" y="0" type="line"/>
      <point x="352" y="0" type="line"/>
    </contour>
    <contour>
      <point x="216" y="690" type="move" name="top"/>
    </contour>
  </outline>
</glyph>
<glyph name="L" format="1">
  <advance width="542"/>
  <unicode hex="004C"/>
  <outline>
    <contour>
      <point x="110" y="0" type="line"/>
      <point x="172" y="0" type="line"/>
      <point x="172" y="690" type="line"/>
      <point x="110" y="690" type="line"/>
    </contour>
    <contour>
      <point x="140" y="0" type="line"/>
      <point x="492" y="0" type="line"/>
      <point x="492" y="54" type="line"/>
      <point x="140" y="54" type="line"/>
    </contour>
  </outline>
</glyph>
<glyph name="N" format="1">
  <advance width="726"/>
  <unicode hex="004E"/>
  <outline>
    <contour>
      <point x="110" y="0" type="line"/>
      <point x="172" y="0" type="line"/>
      <point x="172" y="690" type="line"/>
      <point x="110" y="690" type="line"/>
    </contour>
    <contour>
      <point x="128" y="690" type="line"/>
      <point x="531" y="0" type="line"/>
      <point x="598" y="0" type="line"/>
      <point x="195" y="690" type="line"/>
    </contour>
    <contour>
      <point x="554" y="0" type="line"/>
      <point x="616" y="0" type="line"/>
      <point x="616" y="690" type="line"/>
      <point x="554" y="690" type="line"/>
    </contour>
    <contour>
      <point x="377" y="690" type="move" name="top"/>
    </contour>
  </outline>
</glyph>
<glyph name="O" format="1">
  <advance width="716"/>
  <unicode hex="004F"/>
  <outline>
    <contour>
      <point x="70" y="345" type="curve" smooth="yes"/>
      <point x="70" y="112"/>
      <point x="200" y="-8"/>
      <point x="358" y="-8" type="curve" smooth="yes"/>
      <point x="516" y="-8"/>
      <point x="646" y="112"/>
      <point x="646" y="345" type="curve" smooth="yes"/>
      <point x="646" y="578"/>
      <point x="516" y="698"/>
      <point x="358" y="698" type="curve" smooth="yes"/>
      <point x="200" y="698"/>
      <point x="70" y="578"/>
    </contour>
    <contour>
      <point x="134" y="345" type="curve" smooth="yes"/>
      <point x="134" y="542"/>
      <point x="233" y="641"/>
      <point x="358" y="641" type="curve" smooth="yes"/>
      <point x="483" y="641"/>
      <point x="582" y="542"/>
      <point x="582" y="345" type="curve" smooth="yes"/>
      <point x="582" y="148"/>
      <point x="483" y="49"/>
      <point x="358" y="49" type="curve" smooth="yes"/>
      <point x="233" y="49"/>
      <point x="134" y="148"/>
    </contour>
    <contour>
      <point x="358" y="690" type="move" name="top"/>
    </contour>
  </outline>
</glyph>
<glyph name="S" format="1">
  <advance width="615"/>
  <unicode hex="0053"/>
  <outline>
    <contour>
      <point x="60" y="88" type="line"/>
      <point x="121" y="26"/>
      <point x="202" y="-8"/>
      <point x="305" y="-8" type="curve"/>
      <point x="452" y="-8"/>
      <point x="545" y="68"/>
      <point x="545" y="177" type="curve"/>
      <point x="545" y="266"/>
      <point x="480" y="336"/>
      <point x="319" y="387" type="curve" smooth="yes"/>
      <point x="191" y="428"/>
      <point x="155" y="466"/>
      <point x="155" y="522" type="curve"/>
      <point x="155" y="588"/>
      <point x="217" y="644"/>
      <point x="319" y="644" type="curve"/>
      <point x="392" y="644"/>
      <point x="443" y="616"/>
      <point x="483" y="576" type="curve"/>
      <point x="521" y="622" type="line"/>
      <point x="470" y="670"/>
      <point x="406" y="698"/>
      <point x="319" y="698" type="curve"/>
      <point x="184" y="698"/>
      <point x="96" y="615"/>
      <point x="96" y="519" type="curve"/>
      <point x="96" y="437"/>
      <point x="149" y="378"/>
      <point x="295" y="331" type="curve" smooth="yes"/>
      <point x="447" y="282"/>
      <point x="484" y="233"/>
      <point x="484" y="172" type="curve"/>
      <point x="484" y="101"/>
      <point x="421" y="46"/>
      <point x="305" y="46" type="curve"/>
      <point x="216" y="46"/>
      <point x="151" y="78"/>
      <point x="100" y="131" type="curve"/>
    </contour>
  </outline>
</glyph>
<glyph name="W" format="1">
  <advance width="877"/>
  <unicode hex="0057"/>
  <outline>
    <contour>
      <point x="20" y="690" type="line"/>
      <point x="220" y="0" type="line"/>
      <point x="264" y="0" type="line"/>
      <point x="262" y="51" type="line"/>
      <point x="85" y="690" type="line"/>
    </contour>
    <contour>
      <point x="450" y="690" type="line"/>
      <point x="415" y="690" type="line"/>
      <point x="230" y="51" type="line"/>
      <point x="232" y="0" type="line"/>
      <point x="272" y="0" type="line"/>
      <point x="450" y="614" type="line"/>
    </contour>
    <contour>
      <point x="427" y="690" type="line"/>
      <point x="427" y="614" type="line"/>
      <point x="605" y="0" type="line"/>
      <point x="649" y="0" type="line"/>
      <point x="647" y="51" type="line"/>
      <point x="465" y="690" type="line"/>
    </contour>
    <contour>
      <point x="857" y="690" type="line"/>
      <point x="795" y="690" type="line"/>
      <point x="615" y="51" type="line"/>
      <point x="617" y="0" type="line"/>
      <point x="657" y="0" type="line"/>
    </contour>
  </outline>
</glyph>
<glyph name="Y" format="1">
  <advance width="572"/>
  <unicode hex="0059"/>
  <outline>
    <contour>
      <point x="255" y="310" type="line"/>
      <point x="255" y="0" type="line"/>
      <point x="317" y="0" type="line"/>
      <point x="317" y="310" type="line"/>
    </contour>
    <contour>
      <point x="15" y="690" type="line"/>
      <point x="260" y="280" type="line"/>
      <point x="304" y="280" type="line"/>
      <point x="302" y="321" type="line"/>
      <point x="87" y="690" type="line"/>
    </contour>
    <contour>
      <point x="557" y="690" type="line"/>
      <point x="489" y="690" type="line"/>
      <point x="270" y="321" type="line"/>
      <point x="272" y="280" type="line"/>
      <point x="312" y="280" type="line"/>
    </contour>
    <contour>
      <point x="286" y="690" type="move" name="top"/>
    </contour>
  </outline>
</glyph>
<glyph name="bracketleft" format="1">
  <advance width="296"/>
  <unicode hex="005B"/>
  <outline>
    <contour>
      <point x="110" y="-225" type="line"/>
      <point x="166" y="-225" type="line"/>
      <point x="166" y="760" type="line"/>
      <point x="110" y="760" type="line"/>
    </contour>
    <contour>
      <point x="136" y="-225" type="line"/>
      <point x="311" y="-225" type="line"/>
      <point x="311" y="-175" type="line"/>
      <point x="136" y="-175" type="line"/>
    </contour>
    <contour>
      <point x="136" y="710" type="line"/>
      <point x="311" y="710" type="line"/>
      <point x="311" y="760" type="line"/>
      <point x="136" y="760" type="line"/>
    </contour>
  </outline>
</glyph>
<glyph name="backslash" format="1">
  <advance width="308"/>
  <unicode hex="005C"/>
  <outline>
    <contour>
      <point x="58" y="720" type="line"/>
      <point x="0" y="720" type="line"/>
      <point x="250" y="-30" type="line"/>
      <point x="308" y="-30" type="line"/>
    </contour>
  </outline>
</glyph>
<glyph name="bracketright" format="1">
  <advance width="296"/>
  <unicode hex="005D"/>
  <outline>
    <contour>
      <point x="-15" y="-225" type="line"/>
      <point x="160" y="-225" type="line"/>
      <point x="160" y="-175" type="line"/>
      <point x="-15" y="-175" type="line"/>
    </contour>
    <contour>
      <point x="-15" y="710" type="line"/>
      <point x="160" y="710" type="line"/>
      <point x="160" y="760" type="line"/>
      <point x="-15" y="760" type="line"/>
    </contour>
    <contour>
      <point x="130" y="-225" type="line"/>
      <point x="186" y="-225" type="line"/>
      <point x="186" y="760" type="line"/>
      <point x="130" y="760" type="line"/>
    </contour>
  </outline>
</glyph>
<glyph name="grave" format="1">
  <advance width="600"/>
  <unicode hex="0060"/>
  <outline>
    <contour>
      <point x="246" y="735" type="line"/>
      <point x="331" y="585" type="line"/>
      <point x="276" y="585" type="line"/>
      <point x="172" y="735" type="line"/>
    </contour>
    <contour>
      <point x="300" y="510" type="move" name="_top"/>
    </contour>
  </outline>
</glyph>
<glyph name="b" format="1">
  <advance width="561"/>
  <unicode hex="0062"/>
  <outline>
    <contour>
      <point x="501" y="260" type="curve" smooth="yes"/>
      <point x="501" y="435"/>
      <point x="416" y="518"/>
      <point x="313" y="518" type="curve" smooth="yes"/>
      <point x="248" y="518"/>
      <point x="179" y="475"/>
      <point x="140" y="417" type="curve"/>
      <point x="140" y="369" type="line"/>
      <point x="183" y="428"/>
      <point x="244" y="463"/>
      <point x="305" y="463" type="curve" smooth="yes"/>
      <point x="376" y="463"/>
      <point x="440" y="404"/>
      <point x="440" y="255" type="curve" smooth="yes"/>
      <point x="440" y="103"/>
      <point x="378" y="44"/>
      <point x="293" y="44" type="curve" smooth="yes"/>
      <point x="215" y="44"/>
      <point x="155" y="97"/>
      <point x="155" y="200" type="curve"/>
      <point x="127" y="190" type="line"/>
      <point x="127" y="62"/>
      <point x="202" y="-8"/>
      <point x="297" y="-8" type="curve" smooth="yes"/>
      <point x="408" y="-8"/>
      <point x="501" y="73"/>
    </contour>
    <contour>
      <point x="155" y="120" type="line"/>
      <point x="155" y="731" type="line"/>
      <point x="95" y="717" type="line"/>
      <point x="95" y="122" type="line"/>
      <point x="95" y="89"/>
      <point x="94" y="68"/>
      <point x="90" y="39" type="curve" smooth="yes"/>
      <point x="84" y="0" type="line"/>
      <point x="139" y="0" type="line"/>
      <point x="155" y="103" type="line"/>
    </contour>
  </outline>
</glyph>
<glyph name="d" format="1">
  <advance width="561"/>
  <unicode hex="0064"/>
  <outline>
    <contour>
      <point x="60" y="250" type="curve" smooth="yes"/>
      <point x="60" y="75"/>
      <point x="145" y="-8"/>
      <point x="248" y="-8" type="curve" smooth="yes"/>
      <point x="313" y="-8"/>
      <point x="382" y="35"/>
      <point x="421" y="93" type="curve"/>
      <point x="421" y="144" type="line"/>
      <point x="378" y="83"/>
      <point x="317" y="47"/>
      <point x="256" y="47" type="curve" smooth="yes"/>
      <point x="185.0" y="47.0"/>
      <point x="121.0" y="105.82828282828285"/>
      <point x="121" y="255" type="curve" smooth="yes"/>
      <point x="121.0" y="406.80542986425337"/>
      <point x="183.0" y="466.0"/>
      <point x="268" y="466" type="curve" smooth="yes"/>
      <point x="346" y="466"/>
      <point x="406" y="413"/>
      <point x="406" y="310" type="curve"/>
      <point x="434" y="317" type="line"/>
      <point x="434" y="445"/>
      <point x="359" y="518"/>
      <point x="264" y="518" type="curve" smooth="yes"/>
      <point x="153.0" y="518.0"/>
      <point x="60" y="437"/>
    </contour>
    <contour>
      <point x="422" y="0" type="line"/>
      <point x="477" y="0" type="line"/>
      <point x="471" y="39" type="line" smooth="yes"/>
      <point x="467" y="68"/>
      <point x="466" y="89"/>
      <point x="466" y="122" type="curve" smooth="yes"/>
      <point x="466" y="731" type="line"/>
      <point x="406" y="717" type="line"/>
      <point x="406" y="120" type="line"/>
      <point x="406" y="103" type="line"/>
    </contour>
  </outline>
</glyph>
<glyph name="h" format="1">
  <advance width="575"/>
  <unicode hex="0068"/>
  <outline>
    <contour>
      <point x="140" y="368" type="line"/>
      <point x="184" y="427"/>
      <point x="247" y="463"/>
      <point x="310" y="463" type="curve"/>
      <point x="373" y="463"/>
      <point x="425" y="423"/>
      <point x="425" y="320" type="curve" smooth="yes"/>
      <point x="425" y="0" type="line"/>
      <point x="485" y="0" type="line"/>
      <point x="485" y="325" type="line" smooth="yes"/>
      <point x="485" y="453"/>
      <point x="409" y="518"/>
      <point x="318" y="518" type="curve"/>
      <point x="251" y="518"/>
      <point x="180" y="475"/>
      <point x="140" y="417" type="curve"/>
    </contour>
    <contour>
      <point x="95" y="717" type="line"/>
      <point x="95" y="0" type="line"/>
      <point x="155" y="0" type="line"/>
      <point x="155" y="731" type="line"/>
    </contour>
  </outline>
</glyph>
<glyph name="i" format="1">
  <advance width="250"/>
  <unicode hex="0069"/>
  <outline>
    <contour>
      <point x="125" y="639" type="curve" smooth="yes"/>
      <point x="150" y="639"/>
      <point x="168" y="659"/>
      <point x="168" y="683" type="curve" smooth="yes"/>
      <point x="168" y="708"/>
      <point x="149.86885245901635" y="728.0"/>
      <point x="125" y="728" type="curve" smooth="yes"/>
      <point x="101.47540983606558" y="728.0"/>
      <point x="82" y="708"/>
      <point x="82" y="683" type="curve" smooth="yes"/>
      <point x="82" y="659"/>
      <point x="101" y="639"/>
    </contour>
    <contour>
      <point x="95" y="510" type="line"/>
      <point x="95" y="0" type="line"/>
      <point x="155" y="0" type="line"/>
      <point x="155" y="510" type="line"/>
    </contour>
  </outline>
</glyph>
<glyph name="m" format="1">
  <advance width="859"/>
  <unicode hex="006D"/>
  <outline>
    <contour>
      <point x="95" y="388" type="curve" smooth="yes"/>
      <point x="95" y="0" type="line"/>
      <point x="155" y="0" type="line"/>
      <point x="155" y="390" type="line"/>
      <point x="155" y="407" type="line"/>
      <point x="139" y="510" type="line"/>
      <point x="84" y="510" type="line"/>
      <point x="90" y="471" type="line" smooth="yes"/>
      <point x="94" y="442"/>
      <point x="95" y="421"/>
    </contour>
    <contour>
      <point x="140" y="366" type="line"/>
      <point x="178" y="427"/>
      <point x="235" y="463"/>
      <point x="295" y="463" type="curve"/>
      <point x="355" y="463"/>
      <point x="402" y="423"/>
      <point x="402" y="327" type="curve" smooth="yes"/>
      <point x="402" y="0" type="line"/>
      <point x="462" y="0" type="line"/>
      <point x="462" y="332" type="line" smooth="yes"/>
      <point x="462" y="453"/>
      <point x="391" y="518"/>
      <point x="303" y="518" type="curve"/>
      <point x="239" y="518"/>
      <point x="175" y="475"/>
      <point x="140" y="417" type="curve"/>
    </contour>
    <contour>
      <point x="447" y="366" type="line"/>
      <point x="485" y="427"/>
      <point x="542" y="463"/>
      <point x="602" y="463" type="curve"/>
      <point x="662" y="463"/>
      <point x="709" y="423"/>
      <point x="709" y="327" type="curve" smooth="yes"/>
      <point x="709" y="0" type="line"/>
      <point x="769" y="0" type="line"/>
      <point x="769" y="332" type="line" smooth="yes"/>
      <point x="769" y="453"/>
      <point x="698" y="518"/>
      <point x="610" y="518" type="curve"/>
      <point x="543" y="518"/>
      <point x="476" y="476"/>
      <point x="441" y="418" type="curve"/>
    </contour>
  </outline>
</glyph>
<glyph name="n" format="1">
  <advance width="575.0"/>
  <unicode hex="006E"/>
  <outline>
    <contour>
      <point x="95" y="388" type="curve" smooth="yes"/>
      <point x="95" y="0" type="line"/>
      <point x="155" y="0" type="line"/>
      <point x="155" y="390" type="line"/>
      <point x="155" y="407" type="line"/>
      <point x="139" y="510" type="line"/>
      <point x="84" y="510" type="line"/>
      <point x="90" y="471" type="line" smooth="yes"/>
      <point x="94" y="442"/>
      <point x="95" y="421"/>
    </contour>
    <contour>
      <point x="140" y="366" type="line"/>
      <point x="184" y="427"/>
      <point x="247" y="463"/>
      <point x="310" y="463" type="curve"/>
      <point x="373" y="463"/>
      <point x="425" y="423"/>
      <point x="425" y="320" type="curve" smooth="yes"/>
      <point x="425" y="0" type="line"/>
      <point x="485" y="0" type="line"/>
      <point x="485" y="325" type="line" smooth="yes"/>
      <point x="485" y="453"/>
      <point x="409" y="518"/>
      <point x="318" y="518" type="curve"/>
      <point x="251" y="518"/>
      <point x="180" y="475"/>
      <point x="140" y="417" type="curve"/>
    </contour>
    <contour>
      <point x="300" y="510" type="move" name="top"/>
    </contour>
  </outline>
</glyph>
<glyph name="o" format="1">
  <advance width="544"/>
  <unicode hex="006F"/>
  <outline>
    <contour>
      <point x="60" y="255" type="curve" smooth="yes"/>
      <point x="60" y="84"/>
      <point x="152" y="-8"/>
      <point x="272" y="-8" type="curve" smooth="yes"/>
      <point x="392" y="-8"/>
      <point x="484" y="84"/>
      <point x="484" y="255" type="curve" smooth="yes"/>
      <point x="484" y="426"/>
      <point x="392" y="518"/>
      <point x="272" y="518" type="curve" smooth="yes"/>
      <point x="152" y="518"/>
      <point x="60" y="426"/>
    </contour>
    <contour>
      <point x="121" y="255" type="curve" smooth="yes"/>
      <point x="121" y="396"/>
      <point x="183" y="463"/>
      <point x="272" y="463" type="curve" smooth="yes"/>
      <point x="361" y="463"/>
      <point x="423" y="396"/>
      <point x="423" y="255" type="curve" smooth="yes"/>
      <point x="423" y="114"/>
      <point x="361" y="47"/>
      <point x="272" y="47" type="curve" smooth="yes"/>
      <point x="183" y="47"/>
      <point x="121" y="114"/>
    </contour>
    <contour>
      <point x="272" y="510" type="move" name="top"/>
    </contour>
  </outline>
</glyph>
<glyph name="p" format="1">
  <advance width="561"/>
  <unicode hex="0070"/>
  <outline>
    <contour>
      <point x="95" y="388" type="curve" smooth="yes"/>
      <point x="95" y="-196" type="line"/>
      <point x="155" y="-182" type="line"/>
      <point x="155" y="390" type="line"/>
      <point x="155" y="407" type="line"/>
      <point x="139" y="510" type="line"/>
      <point x="84" y="510" type="line"/>
      <point x="90" y="471" type="line" smooth="yes"/>
      <point x="94" y="442"/>
      <point x="95" y="421"/>
    </contour>
    <contour>
      <point x="501" y="260" type="curve" smooth="yes"/>
      <point x="501" y="435"/>
      <point x="416" y="518"/>
      <point x="313" y="518" type="curve" smooth="yes"/>
      <point x="248" y="518"/>
      <point x="178.87640449438203" y="475.0"/>
      <point x="140" y="417" type="curve"/>
      <point x="140" y="366" type="line"/>
      <point x="182.7058823529412" y="427.0"/>
      <point x="243.85294117647058" y="463.0"/>
      <point x="305" y="463" type="curve" smooth="yes"/>
      <point x="375.72" y="463.0"/>
      <point x="440.0" y="404.17171717171715"/>
      <point x="440" y="255" type="curve" smooth="yes"/>
      <point x="440.0" y="103.1945701357466"/>
      <point x="378.0" y="44.0"/>
      <point x="293" y="44" type="curve" smooth="yes"/>
      <point x="215" y="44"/>
      <point x="155.0" y="97.01923076923076"/>
      <point x="155" y="200" type="curve"/>
      <point x="127" y="193" type="line"/>
      <point x="127" y="65"/>
      <point x="202" y="-8"/>
      <point x="297" y="-8" type="curve" smooth="yes"/>
      <point x="408.0" y="-8.0"/>
      <point x="501" y="73"/>
    </contour>
  </outline>
</glyph>
<glyph name="q" format="1">
  <advance width="556"/>
  <unicode hex="0071"/>
  <outline>
    <contour>
      <point x="55" y="250" type="curve" smooth="yes"/>
      <point x="55" y="75"/>
      <point x="140" y="-8"/>
      <point x="243" y="-8" type="curve" smooth="yes"/>
      <point x="308" y="-8"/>
      <point x="377" y="35"/>
      <point x="416" y="93" type="curve"/>
      <point x="416" y="141" type="line"/>
      <point x="373" y="82"/>
      <point x="312" y="47"/>
      <point x="251" y="47" type="curve" smooth="yes"/>
      <point x="180" y="47"/>
      <point x="116" y="106"/>
      <point x="116" y="255" type="curve" smooth="yes"/>
      <point x="116" y="407"/>
      <point x="178" y="466"/>
      <point x="263" y="466" type="curve" smooth="yes"/>
      <point x="341" y="466"/>
      <point x="401" y="413"/>
      <point x="401" y="310" type="curve"/>
      <point x="429" y="320" type="line"/>
      <point x="429" y="448"/>
      <point x="354" y="518"/>
      <point x="259" y="518" type="curve" smooth="yes"/>
      <point x="148" y="518"/>
      <point x="55" y="437"/>
    </contour>
    <contour>
      <point x="401" y="390" type="line"/>
      <point x="401" y="-196" type="line"/>
      <point x="461" y="-182" type="line"/>
      <point x="461" y="388" type="line"/>
      <point x="461" y="421"/>
      <point x="462" y="442"/>
      <point x="466" y="471" type="curve" smooth="yes"/>
      <point x="472" y="510" type="line"/>
      <point x="417" y="510" type="line"/>
      <point x="401" y="407" type="line"/>
    </contour>
  </outline>
</glyph>
<glyph name="t" format="1">
  <advance width="377"/>
  <unicode hex="0074"/>
  <outline>
    <contour>
      <point x="30" y="460" type="line"/>
      <point x="332" y="460" type="line"/>
      <point x="332" y="510" type="line"/>
      <point x="30" y="510" type="line"/>
    </contour>
    <contour>
      <point x="123" y="135" type="line" smooth="yes"/>
      <point x="123" y="44"/>
      <point x="175" y="-8"/>
      <point x="254" y="-8" type="curve"/>
      <point x="283" y="-8"/>
      <point x="317" y="0"/>
      <point x="342" y="13" type="curve"/>
      <point x="329" y="64" type="line"/>
      <point x="304" y="52"/>
      <point x="280" y="47"/>
      <point x="260" y="47" type="curve"/>
      <point x="214" y="47"/>
      <point x="183" y="73"/>
      <point x="183" y="138" type="curve" smooth="yes"/>
      <point x="183" y="654" type="line"/>
      <point x="123" y="640" type="line"/>
    </contour>
  </outline>
</glyph>
<glyph name="v" format="1">
  <advance width="466"/>
  <unicode hex="0076"/>
  <outline>
    <contour>
      <point x="15" y="510" type="line"/>
      <point x="207" y="0" type="line"/>
      <point x="253" y="0" type="line"/>
      <point x="251" y="38" type="line"/>
      <point x="80" y="510" type="line"/>
    </contour>
    <contour>
      <point x="451" y="510" type="line"/>
      <point x="389" y="510" type="line"/>
      <point x="219" y="38" type="line"/>
      <point x="221" y="0" type="line"/>
      <point x="259" y="0" type="line"/>
    </contour>
  </outline>
</glyph>
<glyph name="x" format="1">
  <advance width="500.0"/>
  <unicode hex="0078"/>
  <outline>
    <contour>
      <point x="35" y="0" type="line"/>
      <point x="103" y="0" type="line"/>
      <point x="256" y="227" type="line"/>
      <point x="274" y="249" type="line"/>
      <point x="455" y="510" type="line"/>
      <point x="387" y="510" type="line"/>
      <point x="244" y="298" type="line"/>
      <point x="226" y="276" type="line"/>
    </contour>
    <contour>
      <point x="45" y="510" type="line"/>
      <point x="232" y="238" type="line"/>
      <point x="395" y="0" type="line"/>
      <point x="465" y="0" type="line"/>
      <point x="268" y="287" type="line"/>
      <point x="115" y="510" type="line"/>
    </contour>
  </outline>
</glyph>
<glyph name="y" format="1">
  <advance width="466"/>
  <unicode hex="0079"/>
  <outline>
    <contour>
      <point x="15" y="510" type="line"/>
      <point x="207" y="0" type="line"/>
      <point x="253" y="0" type="line"/>
      <point x="251" y="38" type="line"/>
      <point x="80" y="510" type="line"/>
    </contour>
    <contour>
      <point x="178" y="-63" type="line" smooth="yes"/>
      <point x="152" y="-126"/>
      <point x="131" y="-140"/>
      <point x="93" y="-140" type="curve"/>
      <point x="77" y="-140"/>
      <point x="60" y="-137"/>
      <point x="43" y="-129" type="curve"/>
      <point x="30" y="-178" type="line"/>
      <point x="49" y="-187"/>
      <point x="74" y="-193"/>
      <point x="99" y="-193" type="curve"/>
      <point x="154" y="-193"/>
      <point x="195" y="-168"/>
      <point x="230" y="-76" type="curve" smooth="yes"/>
      <point x="451" y="510" type="line"/>
      <point x="389" y="510" type="line"/>
      <point x="219" y="38" type="line"/>
    </contour>
    <contour>
      <point x="236" y="510" type="move" name="top"/>
    </contour>
  </outline>
</glyph>
<glyph name="z" format="1">
  <advance width="473"/>
  <unicode hex="007A"/>
  <outline>
    <contour>
      <point x="63" y="460" type="line"/>
      <point x="393" y="460" type="line"/>
      <point x="410" y="470" type="line"/>
      <point x="410" y="510" type="line"/>
      <point x="63" y="510" type="line"/>
    </contour>
    <contour>
      <point x="55" y="0" type="line"/>
      <point x="418" y="0" type="line"/>
      <point x="418" y="50" type="line"/>
      <point x="70" y="50" type="line"/>
      <point x="55" y="40" type="line"/>
    </contour>
    <contour>
      <point x="366" y="510" type="line"/>
      <point x="55" y="40" type="line"/>
      <point x="99" y="0" type="line"/>
      <point x="410" y="470" type="line"/>
    </contour>
  </outline>
</glyph>
<glyph name="braceright" format="1">
  <advance width="358"/>
  <unicode hex="007D"/>
  <outline>
    <contour>
      <point x="45" y="-195" type="curve"/>
      <point x="58" y="-241" type="line"/>
      <point x="170" y="-216"/>
      <point x="224" y="-161"/>
      <point x="224" y="-81" type="curve" smooth="yes"/>
      <point x="224" y="13"/>
      <point x="141" y="62"/>
      <point x="141" y="137" type="curve" smooth="yes"/>
      <point x="141" y="183"/>
      <point x="182" y="227"/>
      <point x="278" y="251" type="curve"/>
      <point x="278" y="285" type="line"/>
      <point x="182" y="309"/>
      <point x="141" y="353"/>
      <point x="141" y="399" type="curve" smooth="yes"/>
      <point x="141" y="474"/>
      <point x="224" y="522"/>
      <point x="224" y="616" type="curve" smooth="yes"/>
      <point x="224" y="696"/>
      <point x="171" y="750"/>
      <point x="58" y="776" type="curve"/>
      <point x="45" y="730" type="line"/>
      <point x="145" y="701"/>
      <point x="168" y="662"/>
      <point x="168" y="617" type="curve" smooth="yes"/>
      <point x="168" y="543"/>
      <point x="90" y="487"/>
      <point x="90" y="401" type="curve"/>
      <point x="90" y="344"/>
      <point x="122" y="295"/>
      <point x="206" y="268" type="curve"/>
      <point x="122" y="240"/>
      <point x="90" y="192"/>
      <point x="90" y="135" type="curve"/>
      <point x="90" y="49"/>
      <point x="168" y="-8"/>
      <point x="168" y="-82" type="curve" smooth="yes"/>
      <point x="168" y="-127"/>
      <point x="145" y="-166"/>
    </contour>
  </outline>
</glyph>
<glyph name="brokenbar" format="1">
  <advance width="276"/>
  <unicode hex="00A6"/>
  <outline>
    <contour>
      <point x="110" y="150" type="line"/>
      <point x="110" y="-215" type="line"/>
      <point x="166" y="-215" type="line"/>
      <point x="166" y="150" type="line"/>
    </contour>
    <contour>
      <point x="110.0" y="720.0" type="line"/>
      <point x="110" y="355" type="line"/>
      <point x="166" y="355" type="line"/>
      <point x="166.0" y="720.0" type="line"/>
    </contour>
  </outline>
</glyph>
<glyph name="guillemetleft" format="1">
  <advance width="482"/>
  <unicode hex="00AB"/>
  <outline>
    <contour>
      <point x="262" y="453" type="line"/>
      <point x="193" y="453" type="line"/>
      <point x="55" y="280" type="line"/>
      <point x="55" y="259" type="line"/>
      <point x="104" y="259" type="line"/>
    </contour>
    <contour>
      <point x="262" y="78" type="line"/>
      <point x="104" y="272" type="line"/>
      <point x="55" y="272" type="line"/>
      <point x="55" y="251" type="line"/>
      <point x="193" y="78" type="line"/>
    </contour>
    <contour>
      <point x="442" y="453" type="line"/>
      <point x="373" y="453" type="line"/>
      <point x="235" y="280" type="line"/>
      <point x="235" y="259" type="line"/>
      <point x="284" y="259" type="line"/>
    </contour>
    <contour>
      <point x="442" y="78" type="line"/>
      <point x="284" y="272" type="line"/>
      <point x="235" y="272" type="line"/>
      <point x="235" y="251" type="line"/>
      <point x="373" y="78" type="line"/>
    </contour>
  </outline>
</glyph>
<glyph name="plusminus" format="1">
  <advance width="660"/>
  <unicode hex="00B1"/>
  <outline>
    <contour>
      <point x="109" y="70" type="line"/>
      <point x="551" y="70" type="line"/>
      <point x="551" y="124" type="line"/>
      <point x="109" y="124" type="line"/>
    </contour>
    <contour>
      <point x="109" y="283" type="line"/>
      <point x="551" y="283" type="line"/>
      <point x="551" y="337" type="line"/>
      <point x="109" y="337" type="line"/>
    </contour>
    <contour>
      <point x="302" y="70" type="line"/>
      <point x="358" y="70" type="line"/>
      <point x="358" y="510" type="line"/>
      <point x="302" y="510" type="line"/>
    </contour>
  </outline>
</glyph>
<glyph name="paragraph" format="1">
  <advance width="656"/>
  <unicode hex="00B6"/>
  <outline>
    <contour>
      <point x="490" y="690" type="line"/>
      <point x="490" y="-185" type="line"/>
      <point x="546" y="-185" type="line"/>
      <point x="546" y="690" type="line"/>
    </contour>
    <contour>
      <point x="317" y="690" type="line"/>
      <point x="183" y="690"/>
      <point x="80" y="608"/>
      <point x="80" y="457" type="curve" smooth="yes"/>
      <point x="80" y="306"/>
      <point x="183" y="224"/>
      <point x="317" y="224" type="curve"/>
      <point x="350" y="224" type="line"/>
      <point x="350" y="-185" type="line"/>
      <point x="406" y="-185" type="line"/>
      <point x="406" y="690" type="line"/>
    </contour>
  </outline>
</glyph>
<glyph name="cedilla" format="1">
  <advance width="600"/>
  <unicode hex="00B8"/>
  <outline>
    <contour>
      <point x="231" y="-193" type="line"/>
      <point x="246" y="-193" type="line" smooth="yes"/>
      <point x="347" y="-193"/>
      <point x="379" y="-153"/>
      <point x="379" y="-116" type="curve" smooth="yes"/>
      <point x="379" y="-89"/>
      <point x="358" y="-63"/>
      <point x="310" y="-55" type="curve"/>
      <point x="321" y="9" type="line"/>
      <point x="283" y="15" type="line"/>
      <point x="262" y="-88" type="line"/>
      <point x="285" y="-90" type="line" smooth="yes"/>
      <point x="316" y="-93"/>
      <point x="328" y="-104"/>
      <point x="328" y="-118" type="curve"/>
      <point x="328" y="-137"/>
      <point x="310" y="-154"/>
      <point x="240" y="-154" type="curve"/>
    </contour>
    <contour>
      <point x="300" y="0" type="move" name="_bottom"/>
    </contour>
  </outline>
</glyph>
<glyph name="guillemetright" format="1">
  <advance width="482"/>
  <unicode hex="00BB"/>
  <outline>
    <contour>
      <point x="220" y="453" type="line"/>
      <point x="378" y="259" type="line"/>
      <point x="427" y="259" type="line"/>
      <point x="427" y="280" type="line"/>
      <point x="289" y="453" type="line"/>
    </contour>
    <contour>
      <point x="220" y="78" type="line"/>
      <point x="289" y="78" type="line"/>
      <point x="427" y="251" type="line"/>
      <point x="427" y="272" type="line"/>
      <point x="378" y="272" type="line"/>
    </contour>
    <contour>
      <point x="40" y="453" type="line"/>
      <point x="198" y="259" type="line"/>
      <point x="247" y="259" type="line"/>
      <point x="247" y="280" type="line"/>
      <point x="109" y="453" type="line"/>
    </contour>
    <contour>
      <point x="40" y="78" type="line"/>
      <point x="109" y="78" type="line"/>
      <point x="247" y="251" type="line"/>
      <point x="247" y="272" type="line"/>
      <point x="198" y="272" type="line"/>
    </contour>
  </outline>
</glyph>
<glyph name="multiply" format="1">
  <advance width="660"/>
  <unicode hex="00D7"/>
  <outline>
    <contour>
      <point x="133" y="447" type="line"/>
      <point x="487" y="93" type="line"/>
      <point x="527" y="133" type="line"/>
      <point x="173" y="487" type="line"/>
    </contour>
    <contour>
      <point x="133" y="132" type="line"/>
      <point x="172" y="93" type="line"/>
      <point x="527" y="448" type="line"/>
      <point x="488" y="487" type="line"/>
    </contour>
  </outline>
</glyph>
<glyph name="Oslash" format="1">
  <advance width="716"/>
  <unicode hex="00D8"/>
  <outline>
    <contour>
      <point x="35" y="27" type="line"/>
      <point x="75" y="-10" type="line"/>
      <point x="681" y="661" type="line"/>
      <point x="641" y="698" type="line"/>
    </contour>
    <component base="O"/>
  </outline>
</glyph>
<glyph name="oslash" format="1">
  <advance width="544"/>
  <unicode hex="00F8"/>
  <outline>
    <contour>
      <point x="479" y="518" type="line"/>
      <point x="25" y="27" type="line"/>
      <point x="65" y="-10" type="line"/>
      <point x="519" y="481" type="line"/>
    </contour>
    <component base="o"/>
  </outline>
</glyph>
<glyph name="dotlessi" format="1">
  <advance width="250"/>
  <unicode hex="0131"/>
  <outline>
    <contour>
      <point x="95" y="510" type="line"/>
      <point x="95" y="0" type="line"/>
      <point x="155" y="0" type="line"/>
      <point x="155" y="510" type="line"/>
    </contour>
    <contour>
      <point x="125" y="510" type="move" name="top"/>
    </contour>
  </outline>
</glyph>
<glyph name="oe" format="1">
  <advance width="871"/>
  <unicode hex="0153"/>
  <outline>
    <contour>
      <point x="267" y="-8" type="curve" smooth="yes"/>
      <point x="376" y="-8"/>
      <point x="459" y="84"/>
      <point x="459" y="255" type="curve" smooth="yes"/>
      <point x="459" y="426"/>
      <point x="376" y="518"/>
      <point x="267" y="518" type="curve" smooth="yes"/>
      <point x="150" y="518"/>
      <point x="60" y="426"/>
      <point x="60" y="255" type="curve" smooth="yes"/>
      <point x="60" y="84"/>
      <point x="150" y="-8"/>
    </contour>
    <contour>
      <point x="267" y="47" type="curve" smooth="yes"/>
      <point x="181" y="47"/>
      <point x="121" y="114"/>
      <point x="121" y="255" type="curve" smooth="yes"/>
      <point x="121" y="396"/>
      <point x="181" y="463"/>
      <point x="267" y="463" type="curve" smooth="yes"/>
      <point x="350" y="463"/>
      <point x="408" y="396"/>
      <point x="408" y="255" type="curve" smooth="yes"/>
      <point x="408" y="114"/>
      <point x="350" y="47"/>
    </contour>
    <contour>
      <point x="811" y="280" type="curve" smooth="yes"/>
      <point x="811" y="431"/>
      <point x="724" y="518"/>
      <point x="615" y="518" type="curve" smooth="yes"/>
      <point x="506" y="518"/>
      <point x="420" y="425"/>
      <point x="420" y="255" type="curve" smooth="yes"/>
      <point x="420" y="81"/>
      <point x="514" y="-8"/>
      <point x="628" y="-8" type="curve" smooth="yes"/>
      <point x="683" y="-8"/>
      <point x="737" y="13"/>
      <point x="783" y="55" type="curve"/>
      <point x="747" y="99" type="line"/>
      <point x="712" y="68"/>
      <point x="674" y="48"/>
      <point x="627" y="48" type="curve" smooth="yes"/>
      <point x="540" y="48"/>
      <point x="471" y="111"/>
      <point x="471" y="255" type="curve" smooth="yes"/>
      <point x="471" y="395"/>
      <point x="531" y="463"/>
      <point x="615" y="463" type="curve" smooth="yes"/>
      <point x="693" y="463"/>
      <point x="754" y="402"/>
      <point x="754" y="270" type="curve"/>
      <point x="754" y="270"/>
      <point x="767" y="294"/>
      <point x="767" y="294" type="curve"/>
      <point x="454" y="294" type="line"/>
      <point x="454" y="244" type="line"/>
      <point x="809" y="244" type="line"/>
      <point x="810" y="254"/>
      <point x="811" y="267"/>
    </contour>
  </outline>
</glyph>
<glyph name="circumflex" format="1">
  <advance width="600"/>
  <unicode hex="02C6"/>
  <outline>
    <contour>
      <point x="264" y="735" type="line"/>
      <point x="175" y="585" type="line"/>
      <point x="230" y="585" type="line"/>
      <point x="331" y="735" type="line"/>
    </contour>
    <contour>
      <point x="336" y="735" type="line"/>
      <point x="269" y="735" type="line"/>
      <point x="370" y="585" type="line"/>
      <point x="425" y="585" type="line"/>
    </contour>
    <contour>
      <point x="300" y="510" type="move" name="_top"/>
    </contour>
  </outline>
</glyph>
<glyph name="caron" format="1">
  <advance width="600"/>
  <unicode hex="02C7"/>
  <outline>
    <contour>
      <point x="336" y="585" type="line"/>
      <point x="425" y="735" type="line"/>
      <point x="370" y="735" type="line"/>
      <point x="269" y="585" type="line"/>
    </contour>
    <contour>
      <point x="264" y="585" type="line"/>
      <point x="331" y="585" type="line"/>
      <point x="230" y="735" type="line"/>
      <point x="175" y="735" type="line"/>
    </contour>
    <contour>
      <point x="300" y="510" type="move" name="_top"/>
    </contour>
  </outline>
</glyph>
<glyph name="dotaccent" format="1">
  <advance width="600"/>
  <unicode hex="02D9"/>
  <outline>
    <contour>
      <point x="300" y="639" type="curve" smooth="yes"/>
      <point x="325" y="639"/>
      <point x="343" y="659"/>
      <point x="343" y="683" type="curve" smooth="yes"/>
      <point x="343" y="708"/>
      <point x="325" y="728"/>
      <point x="300" y="728" type="curve" smooth="yes"/>
      <point x="276" y="728"/>
      <point x="257" y="708"/>
      <point x="257" y="683" type="curve" smooth="yes"/>
      <point x="257" y="659"/>
      <point x="276" y="639"/>
    </contour>
    <contour>
      <point x="300" y="510" type="move" name="_top"/>
    </contour>
  </outline>
</glyph>
<glyph name="ring" format="1">
  <advance width="600"/>
  <unicode hex="02DA"/>
  <outline>
    <contour>
      <point x="300" y="575" type="curve" smooth="yes"/>
      <point x="359.0" y="575.0"/>
      <point x="406.0" y="621.0183486238532"/>
      <point x="406" y="689" type="curve" smooth="yes"/>
      <point x="406.0" y="754.0"/>
      <point x="359.0" y="798.0"/>
      <point x="300" y="798" type="curve" smooth="yes"/>
      <point x="241.0" y="798.0"/>
      <point x="195.0" y="754.0"/>
      <point x="195" y="689" type="curve" smooth="yes"/>
      <point x="195.0" y="621.0183486238532"/>
      <point x="241.0" y="575.0"/>
    </contour>
    <contour>
      <point x="300" y="620" type="curve" smooth="yes"/>
      <point x="265.0" y="620.0"/>
      <point x="241" y="645"/>
      <point x="241" y="689" type="curve" smooth="yes"/>
      <point x="241" y="732"/>
      <point x="265.0" y="758.0"/>
      <point x="300" y="758" type="curve" smooth="yes"/>
      <point x="336.0" y="758.0"/>
      <point x="360" y="732"/>
      <point x="360" y="689" type="curve" smooth="yes"/>
      <point x="360" y="645"/>
      <point x="336.0" y="620.0"/>
    </contour>
    <contour>
      <point x="300" y="510" type="move" name="_top"/>
    </contour>
  </outline>
</glyph>
<glyph name="tilde" format="1">
  <advance width="600"/>
  <unicode hex="02DC"/>
  <outline>
    <contour>
      <point x="164" y="610" type="curve"/>
      <point x="208" y="610" type="line"/>
      <point x="214" y="655"/>
      <point x="228" y="671"/>
      <point x="246" y="671" type="curve" smooth="yes"/>
      <point x="280" y="671"/>
      <point x="298" y="605"/>
      <point x="356" y="605" type="curve"/>
      <point x="397" y="605"/>
      <point x="428" y="645"/>
      <point x="436" y="715" type="curve"/>
      <point x="392" y="715" type="line"/>
      <point x="386" y="670"/>
      <point x="372" y="654"/>
      <point x="355" y="654" type="curve" smooth="yes"/>
      <point x="319" y="654"/>
      <point x="302" y="720"/>
      <point x="244" y="720" type="curve"/>
      <point x="202" y="720"/>
      <point x="172" y="680"/>
    </contour>
    <contour>
      <point x="300" y="510" type="move" name="_top"/>
    </contour>
  </outline>
</glyph>
<glyph name="guilsinglright" format="1">
  <advance width="302"/>
  <unicode hex="203A"/>
  <outline>
    <contour>
      <point x="40" y="453" type="line"/>
      <point x="198" y="259" type="line"/>
      <point x="247" y="259" type="line"/>
      <point x="247" y="280" type="line"/>
      <point x="109" y="453" type="line"/>
    </contour>
    <contour>
      <point x="40" y="78" type="line"/>
      <point x="109" y="78" type="line"/>
      <point x="247" y="251" type="line"/>
      <point x="247" y="272" type="line"/>
      <point x="198" y="272" type="line"/>
    </contour>
  </outline>
</glyph>
<glyph name=".notdef" format="1">
  <advance width="566"/>
  <outline>
    <contour>
      <point x="110" y="690" type="line"/>
      <point x="110" y="-185" type="line"/>
      <point x="166" y="-185" type="line"/>
      <point x="166" y="690" type="line"/>
    </contour>
    <contour>
      <point x="400" y="690" type="line"/>
      <point x="400" y="-185" type="line"/>
      <point x="456" y="-185" type="line"/>
      <point x="456" y="690" type="line"/>
    </contour>
    <contour>
      <point x="136" y="640" type="line"/>
      <point x="430" y="640" type="line"/>
      <point x="430" y="690" type="line"/>
      <point x="136" y="690" type="line"/>
    </contour>
    <contour>
      <point x="136" y="-185" type="line"/>
      <point x="430" y="-185" type="line"/>
      <point x="430" y="-135" type="line"/>
      <point x="136" y="-135" type="line"/>
    </contour>
  </outline>
</glyph>
<glyph name="acute.cap" format="1">
  <advance width="600"/>
  <outline>
    <contour>
      <point x="266" y="750" type="line"/>
      <point x="371" y="885" type="line"/>
      <point x="453" y="885" type="line"/>
      <point x="324" y="750" type="line"/>
    </contour>
    <contour>
      <point x="300.0" y="690.0" type="move" name="_top"/>
    </contour>
  </outline>
</glyph>
<glyph name="circumflex.cap" format="1">
  <advance width="600"/>
  <outline>
    <contour>
      <point x="259" y="885" type="line"/>
      <point x="161" y="750" type="line"/>
      <point x="217" y="750" type="line"/>
      <point x="338" y="885" type="line"/>
    </contour>
    <contour>
      <point x="341" y="885" type="line"/>
      <point x="262" y="885" type="line"/>
      <point x="383" y="750" type="line"/>
      <point x="439" y="750" type="line"/>
    </contour>
    <contour>
      <point x="300.0" y="690.0" type="move" name="_top"/>
    </contour>
  </outline>
</glyph>
<glyph name="ring.cap" format="1">
  <advance width="600"/>
  <outline>
    <contour>
      <point x="195" y="844" type="curve" smooth="yes"/>
      <point x="195.0" y="781.9649122807018"/>
      <point x="241.0" y="740.0"/>
      <point x="300" y="740" type="curve" smooth="yes"/>
      <point x="359.0" y="740.0"/>
      <point x="406.0" y="781.9649122807018"/>
      <point x="406" y="844" type="curve" smooth="yes"/>
      <point x="406.0" y="903.0"/>
      <point x="359.0" y="943.0"/>
      <point x="300" y="943" type="curve" smooth="yes"/>
      <point x="241.0" y="943.0"/>
      <point x="195.0" y="903.0"/>
    </contour>
    <contour>
      <point x="241" y="844" type="curve" smooth="yes"/>
      <point x="241.0" y="881.0"/>
      <point x="265.0" y="903.0"/>
      <point x="300" y="903" type="curve" smooth="yes"/>
      <point x="336.0" y="903.0"/>
      <point x="360.0" y="881.0"/>
      <point x="360" y="844" type="curve" smooth="yes"/>
      <point x="360.0" y="806.376811594203"/>
      <point x="336.0" y="785.0"/>
      <point x="300" y="785" type="curve" smooth="yes"/>
      <point x="265.0" y="785.0"/>
      <point x="241.0" y="806.376811594203"/>
    </contour>
    <contour>
      <point x="300" y="690" type="move" name="_top"/>
    </contour>
  </outline>
</glyph>
<glyph name="u.ss01" format="1">
  <advance width="579"/>
  <outline>
    <contour>
      <point x="429" y="144" type="line"/>
      <point x="385" y="83"/>
      <point x="325" y="47"/>
      <point x="260" y="47" type="curve"/>
      <point x="199" y="47"/>
      <point x="150" y="87"/>
      <point x="150" y="190" type="curve" smooth="yes"/>
      <point x="150" y="510" type="line"/>
      <point x="90" y="510" type="line"/>
      <point x="90" y="185" type="line" smooth="yes"/>
      <point x="90" y="57"/>
      <point x="163" y="-8"/>
      <point x="252" y="-8" type="curve"/>
      <point x="321" y="-8"/>
      <point x="389" y="35"/>
      <point x="429" y="93" type="curve"/>
    </contour>
    <contour>
      <point x="474" y="81" type="curve"/>
      <point x="474" y="510" type="line"/>
      <point x="414" y="510" type="line"/>
      <point x="414" y="120" type="line"/>
      <point x="419" y="84" type="line"/>
      <point x="419" y="20"/>
      <point x="452" y="-8"/>
      <point x="493" y="-8" type="curve"/>
      <point x="506" y="-8"/>
      <point x="520" y="-5"/>
      <point x="531" y="0" type="curve"/>
      <point x="531" y="48" type="line"/>
      <point x="524" y="46"/>
      <point x="514" y="44"/>
      <point x="505" y="44" type="curve"/>
      <point x="487" y="44"/>
      <point x="474" y="53"/>
    </contour>
    <contour>
      <point x="281.0" y="510.0" type="move" name="top"/>
    </contour>
  </outline>
</glyph>
